<?xml version="1.0" standalone="no"?>
<!DOCTYPE svg PUBLIC "-//W3C//DTD SVG 1.1//EN" "http://www.w3.org/Graphics/SVG/1.1/DTD/svg11.dtd">
<svg xmlns="http://www.w3.org/2000/svg" xmlns:xlink="http://www.w3.org/1999/xlink" contentStyleType="text/css" data-diagram-type="DESCRIPTION" height="1076" preserveAspectRatio="none" style="width:2242px;height:1076px;background:#FFFFFF;" version="1.1" viewBox="0 0 2242 1076" width="2242" zoomAndPan="magnify"><title>Smart Boarding Management System (SBMS)
Full AWS Architecture with Real-Time Chat</title><defs/><g><g class="title" data-source-line="1"><text fill="#000000" font-family="sans-serif" font-size="14" font-weight="bold" lengthAdjust="spacing" textLength="357.5947" x="935.4617" y="22.9951">Smart Boarding Management System (SBMS)</text><text fill="#000000" font-family="sans-serif" font-size="14" font-weight="bold" lengthAdjust="spacing" textLength="337.7432" x="945.3875" y="39.292">Full AWS Architecture with Real-Time Chat</text></g><!--cluster Client Layer--><g class="cluster" data-qualified-name="Client Layer" data-source-line="12" id="ent0005"><rect fill="none" height="103.59" rx="2.5" ry="2.5" style="stroke:#181818;stroke-width:1;" width="320" x="1773" y="182.3938"/><text fill="#000000" font-family="sans-serif" font-size="14" font-weight="bold" lengthAdjust="spacing" textLength="94.7939" x="1885.603" y="197.3889">Client Layer</text></g><!--cluster AWS Cloud--><g class="cluster" data-qualified-name="AWS Cloud" data-source-line="17" id="ent0008"><rect fill="none" height="735.82" rx="2.5" ry="2.5" style="stroke:#181818;stroke-width:1;" width="2162" x="7" y="334.9838"/><text fill="#000000" font-family="sans-serif" font-size="14" font-weight="bold" lengthAdjust="spacing" textLength="85.9141" x="1045.043" y="349.9789">AWS Cloud</text></g><!--cluster Networking--><g class="cluster" data-qualified-name="AWS Cloud.Networking" data-source-line="19" id="ent0009"><rect fill="none" height="217.19" rx="2.5" ry="2.5" style="stroke:#181818;stroke-width:1;" width="234" x="1747" y="377.9838"/><text fill="#000000" font-family="sans-serif" font-size="14" font-weight="bold" lengthAdjust="spacing" textLength="91.458" x="1818.271" y="392.9789">Networking</text></g><!--cluster Compute Layer--><g class="cluster" data-qualified-name="AWS Cloud.Compute Layer" data-source-line="24" id="ent0012"><rect fill="none" height="103.59" rx="2.5" ry="2.5" style="stroke:#181818;stroke-width:1;" width="210" x="1029" y="644.1738"/><text fill="#000000" font-family="sans-serif" font-size="14" font-weight="bold" lengthAdjust="spacing" textLength="119.4238" x="1074.2881" y="659.1689">Compute Layer</text></g><!--cluster Application Layer (Monolith)--><g class="cluster" data-qualified-name="AWS Cloud.Application Layer .Monolith." data-source-line="28" id="ent0014"><rect fill="none" height="103.59" rx="2.5" ry="2.5" style="stroke:#181818;stroke-width:1;" width="1646" x="329" y="780.7638"/><text fill="#000000" font-family="sans-serif" font-size="14" font-weight="bold" lengthAdjust="spacing" textLength="225.1279" x="1039.436" y="795.7589">Application Layer (Monolith)</text></g><!--cluster Messaging & Events--><g class="cluster" data-qualified-name="AWS Cloud.Messaging . Events" data-source-line="40" id="ent0024"><rect fill="none" height="103.59" rx="2.5" ry="2.5" style="stroke:#181818;stroke-width:1;" width="220" x="1612" y="943.2138"/><text fill="#000000" font-family="sans-serif" font-size="14" font-weight="bold" lengthAdjust="spacing" textLength="159.4824" x="1642.2588" y="958.2089">Messaging &amp; Events</text></g><!--cluster Data Layer--><g class="cluster" data-qualified-name="AWS Cloud.Data Layer" data-source-line="44" id="ent0026"><rect fill="none" height="96.3" rx="2.5" ry="2.5" style="stroke:#181818;stroke-width:1;" width="178" x="36" y="946.8538"/><text fill="#000000" font-family="sans-serif" font-size="14" font-weight="bold" lengthAdjust="spacing" textLength="85.9756" x="82.0122" y="961.8489">Data Layer</text></g><!--cluster Storage--><g class="cluster" data-qualified-name="AWS Cloud.Storage" data-source-line="48" id="ent0028"><rect fill="none" height="103.59" rx="2.5" ry="2.5" style="stroke:#181818;stroke-width:1;" width="256" x="1873" y="943.2138"/><text fill="#000000" font-family="sans-serif" font-size="14" font-weight="bold" lengthAdjust="spacing" textLength="62.2617" x="1969.8691" y="958.2089">Storage</text></g><!--cluster External Services--><g class="cluster" data-qualified-name="AWS Cloud.External Services" data-source-line="52" id="ent0030"><rect fill="none" height="103.59" rx="2.5" ry="2.5" style="stroke:#181818;stroke-width:1;" width="331" x="240" y="943.2138"/><text fill="#000000" font-family="sans-serif" font-size="14" font-weight="bold" lengthAdjust="spacing" textLength="137.3066" x="336.8467" y="958.2089">External Services</text></g><!--entity Mobile--><g class="entity" data-qualified-name="Client Layer.Mobile" data-source-line="13" id="ent0006"><rect fill="#F1F1F1" height="52.5938" rx="2.5" ry="2.5" style="stroke:#181818;stroke-width:0.5;" width="169.0098" x="1789.5" y="217.3938"/><text fill="#000000" font-family="sans-serif" font-size="14" lengthAdjust="spacing" textLength="77.7246" x="1799.5" y="240.3889">Mobile App</text><text fill="#000000" font-family="sans-serif" font-size="14" lengthAdjust="spacing" textLength="149.0098" x="1799.5" y="256.6857">(React Native / Expo)</text></g><!--entity Web--><g class="entity" data-qualified-name="Client Layer.Web" data-source-line="14" id="ent0007"><rect fill="#F1F1F1" height="52.5938" rx="2.5" ry="2.5" style="stroke:#181818;stroke-width:0.5;" width="83.1436" x="1993.43" y="217.3938"/><text fill="#000000" font-family="sans-serif" font-size="14" lengthAdjust="spacing" textLength="63.1436" x="2003.43" y="240.3889">Web App</text><text fill="#000000" font-family="sans-serif" font-size="14" lengthAdjust="spacing" textLength="51.0303" x="2003.43" y="256.6857">(React)</text></g><!--entity Route53--><g class="entity" data-qualified-name="AWS Cloud.Networking.Route53" data-source-line="20" id="ent0010"><rect fill="#F1F1F1" height="52.5938" rx="2.5" ry="2.5" style="stroke:#181818;stroke-width:0.5;" width="83.5332" x="1832.23" y="412.9838"/><text fill="#000000" font-family="sans-serif" font-size="14" lengthAdjust="spacing" textLength="63.5332" x="1842.23" y="435.9789">Route 53</text><text fill="#000000" font-family="sans-serif" font-size="14" lengthAdjust="spacing" textLength="41.0635" x="1842.23" y="452.2757">(DNS)</text></g><!--entity ALB--><g class="entity" data-qualified-name="AWS Cloud.Networking.ALB" data-source-line="21" id="ent0011"><rect fill="#F1F1F1" height="52.5938" rx="2.5" ry="2.5" style="stroke:#181818;stroke-width:0.5;" width="202.5469" x="1762.73" y="526.5738"/><text fill="#000000" font-family="sans-serif" font-size="14" lengthAdjust="spacing" textLength="182.5469" x="1772.73" y="549.5689">Application Load Balancer</text><text fill="#000000" font-family="sans-serif" font-size="14" lengthAdjust="spacing" textLength="37.9053" x="1772.73" y="565.8657">(ALB)</text></g><!--entity Backend--><g class="entity" data-qualified-name="AWS Cloud.Compute Layer.Backend" data-source-line="25" id="ent0013"><rect fill="#F1F1F1" height="52.5938" rx="2.5" ry="2.5" style="stroke:#181818;stroke-width:0.5;" width="177.4521" x="1045.27" y="679.1738"/><text fill="#000000" font-family="sans-serif" font-size="14" lengthAdjust="spacing" textLength="91.5264" x="1055.27" y="702.1689">EC2 Instance</text><text fill="#000000" font-family="sans-serif" font-size="14" lengthAdjust="spacing" textLength="157.4521" x="1055.27" y="718.4657">(Spring Boot Monolith)</text></g><!--entity Auth--><g class="entity" data-qualified-name="AWS Cloud.Application Layer .Monolith..Auth" data-source-line="29" id="ent0015"><rect fill="#F1F1F1" height="52.5938" rx="2.5" ry="2.5" style="stroke:#181818;stroke-width:0.5;" width="135.5684" x="1234.22" y="815.7638"/><text fill="#000000" font-family="sans-serif" font-size="14" lengthAdjust="spacing" textLength="88.1699" x="1244.22" y="838.7589">Auth Module</text><text fill="#000000" font-family="sans-serif" font-size="14" lengthAdjust="spacing" textLength="115.5684" x="1244.22" y="855.0557">(JWT + Security)</text></g><!--entity Boarding--><g class="entity" data-qualified-name="AWS Cloud.Application Layer .Monolith..Boarding" data-source-line="30" id="ent0016"><rect fill="#F1F1F1" height="36.2969" rx="2.5" ry="2.5" style="stroke:#181818;stroke-width:0.5;" width="138.3984" x="1404.8" y="823.9138"/><text fill="#000000" font-family="sans-serif" font-size="14" lengthAdjust="spacing" textLength="118.3984" x="1414.8" y="846.9089">Boarding Module</text></g><!--entity Appointment--><g class="entity" data-qualified-name="AWS Cloud.Application Layer .Monolith..Appointment" data-source-line="31" id="ent0017"><rect fill="#F1F1F1" height="36.2969" rx="2.5" ry="2.5" style="stroke:#181818;stroke-width:0.5;" width="166.1387" x="1577.93" y="823.9138"/><text fill="#000000" font-family="sans-serif" font-size="14" lengthAdjust="spacing" textLength="146.1387" x="1587.93" y="846.9089">Appointment Module</text></g><!--entity Registration--><g class="entity" data-qualified-name="AWS Cloud.Application Layer .Monolith..Registration" data-source-line="32" id="ent0018"><rect fill="#F1F1F1" height="36.2969" rx="2.5" ry="2.5" style="stroke:#181818;stroke-width:0.5;" width="160.4102" x="344.79" y="823.9138"/><text fill="#000000" font-family="sans-serif" font-size="14" lengthAdjust="spacing" textLength="140.4102" x="354.79" y="846.9089">Registration Module</text></g><!--entity Payment--><g class="entity" data-qualified-name="AWS Cloud.Application Layer .Monolith..Payment" data-source-line="33" id="ent0019"><rect fill="#F1F1F1" height="36.2969" rx="2.5" ry="2.5" style="stroke:#181818;stroke-width:0.5;" width="137.2773" x="540.36" y="823.9138"/><text fill="#000000" font-family="sans-serif" font-size="14" lengthAdjust="spacing" textLength="117.2773" x="550.36" y="846.9089">Payment Module</text></g><!--entity Maintenance--><g class="entity" data-qualified-name="AWS Cloud.Application Layer .Monolith..Maintenance" data-source-line="34" id="ent0020"><rect fill="#F1F1F1" height="36.2969" rx="2.5" ry="2.5" style="stroke:#181818;stroke-width:0.5;" width="165.5166" x="712.24" y="823.9138"/><text fill="#000000" font-family="sans-serif" font-size="14" lengthAdjust="spacing" textLength="145.5166" x="722.24" y="846.9089">Maintenance Module</text></g><!--entity Chat--><g class="entity" data-qualified-name="AWS Cloud.Application Layer .Monolith..Chat" data-source-line="35" id="ent0021"><rect fill="#F1F1F1" height="52.5938" rx="2.5" ry="2.5" style="stroke:#181818;stroke-width:0.5;" width="179.2363" x="1779.38" y="815.7638"/><text fill="#000000" font-family="sans-serif" font-size="14" lengthAdjust="spacing" textLength="88.0742" x="1789.38" y="838.7589">Chat Module</text><text fill="#000000" font-family="sans-serif" font-size="14" lengthAdjust="spacing" textLength="159.2363" x="1789.38" y="855.0557">(WebSocket + STOMP)</text></g><!--entity AdminModule--><g class="entity" data-qualified-name="AWS Cloud.Application Layer .Monolith..AdminModule" data-source-line="36" id="ent0022"><rect fill="#F1F1F1" height="36.2969" rx="2.5" ry="2.5" style="stroke:#181818;stroke-width:0.5;" width="120.2217" x="912.89" y="823.9138"/><text fill="#000000" font-family="sans-serif" font-size="14" lengthAdjust="spacing" textLength="100.2217" x="922.89" y="846.9089">Admin Module</text></g><!--entity Chatbot--><g class="entity" data-qualified-name="AWS Cloud.Application Layer .Monolith..Chatbot" data-source-line="37" id="ent0023"><rect fill="#F1F1F1" height="52.5938" rx="2.5" ry="2.5" style="stroke:#181818;stroke-width:0.5;" width="131.0156" x="1068.49" y="815.7638"/><text fill="#000000" font-family="sans-serif" font-size="14" lengthAdjust="spacing" textLength="111.0156" x="1078.49" y="838.7589">Chatbot Module</text><text fill="#000000" font-family="sans-serif" font-size="14" lengthAdjust="spacing" textLength="88.3203" x="1078.49" y="855.0557">(Hybrid NLP)</text></g><!--entity RabbitMQ--><g class="entity" data-qualified-name="AWS Cloud.Messaging . Events.RabbitMQ" data-source-line="41" id="ent0025"><rect fill="#F1F1F1" height="52.5938" rx="2.5" ry="2.5" style="stroke:#181818;stroke-width:0.5;" width="188.1436" x="1627.93" y="978.2138"/><text fill="#000000" font-family="sans-serif" font-size="14" lengthAdjust="spacing" textLength="68.5576" x="1637.93" y="1001.2089">RabbitMQ</text><text fill="#000000" font-family="sans-serif" font-size="14" lengthAdjust="spacing" textLength="168.1436" x="1637.93" y="1017.5057">(Optional Async Events)</text></g><!--entity RDS--><g class="entity" data-qualified-name="AWS Cloud.Data Layer.RDS" data-source-line="45" id="ent0027"><path d="M52.24,991.8538 C52.24,981.8538 125.0007,981.8538 125.0007,981.8538 C125.0007,981.8538 197.7615,981.8538 197.7615,991.8538 L197.7615,1017.1506 C197.7615,1027.1506 125.0007,1027.1506 125.0007,1027.1506 C125.0007,1027.1506 52.24,1027.1506 52.24,1017.1506 L52.24,991.8538" fill="#F1F1F1" style="stroke:#181818;stroke-width:0.5;"/><path d="M52.24,991.8538 C52.24,1001.8538 125.0007,1001.8538 125.0007,1001.8538 C125.0007,1001.8538 197.7615,1001.8538 197.7615,991.8538" fill="none" style="stroke:#181818;stroke-width:0.5;"/><text fill="#000000" font-family="sans-serif" font-size="14" lengthAdjust="spacing" textLength="125.5215" x="62.24" y="1018.8489">PostgreSQL (RDS)</text></g><!--entity S3--><g class="entity" data-qualified-name="AWS Cloud.Storage.S3" data-source-line="49" id="ent0029"><rect fill="#F1F1F1" height="52.5938" rx="2.5" ry="2.5" style="stroke:#181818;stroke-width:0.5;" width="223.7793" x="1889.11" y="978.2138"/><text fill="#000000" font-family="sans-serif" font-size="14" lengthAdjust="spacing" textLength="78.8252" x="1899.11" y="1001.2089">Amazon S3</text><text fill="#000000" font-family="sans-serif" font-size="14" lengthAdjust="spacing" textLength="203.7793" x="1899.11" y="1017.5057">(Images, Receipts, Evidence)</text></g><!--entity Email--><g class="entity" data-qualified-name="AWS Cloud.External Services.Email" data-source-line="53" id="ent0031"><rect fill="#F1F1F1" height="52.5938" rx="2.5" ry="2.5" style="stroke:#181818;stroke-width:0.5;" width="115.0332" x="256.48" y="978.2138"/><text fill="#000000" font-family="sans-serif" font-size="14" lengthAdjust="spacing" textLength="95.0332" x="266.48" y="1001.2089">Email Service</text><text fill="#000000" font-family="sans-serif" font-size="14" lengthAdjust="spacing" textLength="88.9902" x="266.48" y="1017.5057">(Spring Mail)</text></g><!--entity PayGateway--><g class="entity" data-qualified-name="AWS Cloud.External Services.PayGateway" data-source-line="54" id="ent0032"><rect fill="#F1F1F1" height="52.5938" rx="2.5" ry="2.5" style="stroke:#181818;stroke-width:0.5;" width="148.2148" x="406.89" y="978.2138"/><text fill="#000000" font-family="sans-serif" font-size="14" lengthAdjust="spacing" textLength="128.2148" x="416.89" y="1001.2089">Payment Gateway</text><text fill="#000000" font-family="sans-serif" font-size="14" lengthAdjust="spacing" textLength="56.5811" x="416.89" y="1017.5057">(Future)</text></g><!--entity Student--><g class="entity" data-qualified-name="Student" data-source-line="8" id="ent0002"><ellipse cx="1911.9957" cy="67.5938" fill="#F1F1F1" rx="8" ry="8" style="stroke:#181818;stroke-width:0.5;"/><path d="M1911.9957,75.5938 L1911.9957,102.5938 M1898.9957,83.5938 L1924.9957,83.5938 M1911.9957,102.5938 L1898.9957,117.5938 M1911.9957,102.5938 L1924.9957,117.5938" fill="none" style="stroke:#181818;stroke-width:0.5;"/><text fill="#000000" font-family="sans-serif" font-size="14" lengthAdjust="spacing" textLength="55.1113" x="1884.44" y="132.0889">Student</text></g><!--entity Owner--><g class="entity" data-qualified-name="Owner" data-source-line="9" id="ent0003"><ellipse cx="1826.996" cy="67.5938" fill="#F1F1F1" rx="8" ry="8" style="stroke:#181818;stroke-width:0.5;"/><path d="M1826.996,75.5938 L1826.996,102.5938 M1813.996,83.5938 L1839.996,83.5938 M1826.996,102.5938 L1813.996,117.5938 M1826.996,102.5938 L1839.996,117.5938" fill="none" style="stroke:#181818;stroke-width:0.5;"/><text fill="#000000" font-family="sans-serif" font-size="14" lengthAdjust="spacing" textLength="45.7119" x="1804.14" y="132.0889">Owner</text></g><!--entity Admin--><g class="entity" data-qualified-name="Admin" data-source-line="10" id="ent0004"><ellipse cx="2035.0021" cy="67.5938" fill="#F1F1F1" rx="8" ry="8" style="stroke:#181818;stroke-width:0.5;"/><path d="M2035.0021,75.5938 L2035.0021,102.5938 M2022.0021,83.5938 L2048.0021,83.5938 M2035.0021,102.5938 L2022.0021,117.5938 M2035.0021,102.5938 L2048.0021,117.5938" fill="none" style="stroke:#181818;stroke-width:0.5;"/><text fill="#000000" font-family="sans-serif" font-size="14" lengthAdjust="spacing" textLength="44.8643" x="2012.57" y="132.0889">Admin</text></g><!--entity Report--><g class="entity" data-qualified-name="Report" data-source-line="91" id="ent0056"><ellipse cx="2211.999" cy="812.4138" fill="#F1F1F1" rx="8" ry="8" style="stroke:#181818;stroke-width:0.5;"/><path d="M2211.999,820.4138 L2211.999,847.4138 M2198.999,828.4138 L2224.999,828.4138 M2211.999,847.4138 L2198.999,862.4138 M2211.999,847.4138 L2224.999,862.4138" fill="none" style="stroke:#181818;stroke-width:0.5;"/><text fill="#000000" font-family="sans-serif" font-size="14" lengthAdjust="spacing" textLength="47.0381" x="2188.48" y="876.9089">Report</text></g><!--link Student to Mobile--><g class="link" data-entity-1="ent0002" data-entity-2="ent0006" data-link-type="dependency" data-source-line="59" id="lnk33"><path d="M1902.12,135.8138 C1895.39,161.3938 1888.1877,188.7715 1882.2477,211.3315" fill="none" id="Student-to-Mobile" style="stroke:#2C3E50;stroke-width:1;"/><polygon fill="#2C3E50" points="1880.72,217.1338,1886.8797,209.4489,1881.9931,212.2985,1879.1434,207.4119,1880.72,217.1338" style="stroke:#2C3E50;stroke-width:1;"/></g><!--link Owner to Mobile--><g class="link" data-entity-1="ent0003" data-entity-2="ent0006" data-link-type="dependency" data-source-line="60" id="lnk34"><path d="M1839.23,135.8138 C1847.55,161.3938 1856.4837,188.8681 1863.8237,211.4281" fill="none" id="Owner-to-Mobile" style="stroke:#2C3E50;stroke-width:1;"/><polygon fill="#2C3E50" points="1865.68,217.1338,1866.6992,207.3378,1864.133,212.3791,1859.0917,209.8129,1865.68,217.1338" style="stroke:#2C3E50;stroke-width:1;"/></g><!--link Admin to Web--><g class="link" data-entity-1="ent0004" data-entity-2="ent0007" data-link-type="dependency" data-source-line="61" id="lnk35"><path d="M2035,135.8138 C2035,161.3938 2035,188.5738 2035,211.1338" fill="none" id="Admin-to-Web" style="stroke:#2C3E50;stroke-width:1;"/><polygon fill="#2C3E50" points="2035,217.1338,2039,208.1338,2035,212.1338,2031,208.1338,2035,217.1338" style="stroke:#2C3E50;stroke-width:1;"/></g><!--link Mobile to Route53--><g class="link" data-entity-1="ent0006" data-entity-2="ent0010" data-link-type="dependency" data-source-line="64" id="lnk36"><path d="M1874,270.3938 C1874,307.5238 1874,369.7538 1874,406.7738" fill="none" id="Mobile-to-Route53" style="stroke:#2C3E50;stroke-width:1;"/><polygon fill="#2C3E50" points="1874,412.7738,1878,403.7738,1874,407.7738,1870,403.7738,1874,412.7738" style="stroke:#2C3E50;stroke-width:1;"/><text fill="#000000" font-family="sans-serif" font-size="13" lengthAdjust="spacing" textLength="41.7485" x="1875" y="315.0506">HTTPS</text></g><!--link Web to Route53--><g class="link" data-entity-1="ent0007" data-entity-2="ent0010" data-link-type="dependency" data-source-line="65" id="lnk37"><path d="M2013.62,270.3938 C1982.74,307.5238 1929.8367,371.1407 1899.0467,408.1607" fill="none" id="Web-to-Route53" style="stroke:#2C3E50;stroke-width:1;"/><polygon fill="#2C3E50" points="1895.21,412.7738,1904.0404,408.412,1898.4072,408.9296,1897.8897,403.2965,1895.21,412.7738" style="stroke:#2C3E50;stroke-width:1;"/><text fill="#000000" font-family="sans-serif" font-size="13" lengthAdjust="spacing" textLength="41.7485" x="1983" y="315.0506">HTTPS</text></g><!--link Route53 to ALB--><g class="link" data-entity-1="ent0010" data-entity-2="ent0011" data-link-type="dependency" data-source-line="67" id="lnk38"><path d="M1871.71,465.8838 C1870.08,484.0238 1868.4476,502.2979 1866.8176,520.4179" fill="none" id="Route53-to-ALB" style="stroke:#2C3E50;stroke-width:1;"/><polygon fill="#2C3E50" points="1866.28,526.3938,1871.0703,517.7883,1866.728,521.4139,1863.1024,517.0716,1866.28,526.3938" style="stroke:#2C3E50;stroke-width:1;"/></g><!--link ALB to Backend--><g class="link" data-entity-1="ent0011" data-entity-2="ent0013" data-link-type="dependency" data-source-line="68" id="lnk39"><path d="M1762.5,574.8138 C1619.11,604.3938 1365.4363,656.7216 1229.0663,684.8516" fill="none" id="ALB-to-Backend" style="stroke:#2C3E50;stroke-width:1;"/><polygon fill="#2C3E50" points="1223.19,686.0638,1232.8125,688.1631,1228.0869,685.0536,1231.1963,680.328,1223.19,686.0638" style="stroke:#2C3E50;stroke-width:1;"/><text fill="#000000" font-family="sans-serif" font-size="13" lengthAdjust="spacing" textLength="125.6772" x="1586" y="624.2406">REST + WebSocket</text></g><!--link Backend to Auth--><g class="link" data-entity-1="ent0013" data-entity-2="ent0015" data-link-type="dependency" data-source-line="71" id="lnk40"><path d="M1166.34,732.2638 C1181.7,744.5238 1200.3,759.3938 1217,772.7638 C1234.58,786.8538 1249.5034,798.8349 1265.4534,811.6549" fill="none" id="Backend-to-Auth" style="stroke:#2C3E50;stroke-width:1;"/><polygon fill="#2C3E50" points="1270.13,815.4138,1265.621,806.6577,1266.2328,812.2813,1260.6091,812.8932,1270.13,815.4138" style="stroke:#2C3E50;stroke-width:1;"/></g><!--link Backend to Boarding--><g class="link" data-entity-1="ent0013" data-entity-2="ent0016" data-link-type="dependency" data-source-line="72" id="lnk41"><path d="M1222.93,720.5238 C1272.93,730.6638 1335.45,747.1638 1387,772.7638 C1413.49,785.9138 1435.2006,803.8731 1451.8006,819.3431" fill="none" id="Backend-to-Boarding" style="stroke:#2C3E50;stroke-width:1;"/><polygon fill="#2C3E50" points="1456.19,823.4338,1452.333,814.3716,1452.5322,820.0249,1446.8788,820.2241,1456.19,823.4338" style="stroke:#2C3E50;stroke-width:1;"/></g><!--link Backend to Appointment--><g class="link" data-entity-1="ent0013" data-entity-2="ent0017" data-link-type="dependency" data-source-line="73" id="lnk42"><path d="M1222.85,708.8638 C1311.36,713.8538 1449.73,728.7538 1561,772.7638 C1591.5,784.8238 1617.3449,803.7195 1636.4949,819.6295" fill="none" id="Backend-to-Appointment" style="stroke:#2C3E50;stroke-width:1;"/><polygon fill="#2C3E50" points="1641.11,823.4638,1636.7436,814.6357,1637.2641,820.2686,1631.6313,820.7891,1641.11,823.4638" style="stroke:#2C3E50;stroke-width:1;"/></g><!--link Backend to Registration--><g class="link" data-entity-1="ent0013" data-entity-2="ent0018" data-link-type="dependency" data-source-line="74" id="lnk43"><path d="M1044.83,710.7138 C899,718.5538 616.36,737.7938 523,772.7638 C492.51,784.1838 467.0904,803.3498 448.4804,819.5098" fill="none" id="Backend-to-Registration" style="stroke:#2C3E50;stroke-width:1;"/><polygon fill="#2C3E50" points="443.95,823.4438,453.3682,820.5631,447.7253,820.1655,448.1229,814.5226,443.95,823.4438" style="stroke:#2C3E50;stroke-width:1;"/></g><!--link Backend to Payment--><g class="link" data-entity-1="ent0013" data-entity-2="ent0019" data-link-type="dependency" data-source-line="75" id="lnk44"><path d="M1044.94,706.6038 C953.53,709.7438 808.96,723.1638 695,772.7638 C667.55,784.7138 645.6885,803.467 629.5785,819.457" fill="none" id="Backend-to-Payment" style="stroke:#2C3E50;stroke-width:1;"/><polygon fill="#2C3E50" points="625.32,823.6838,634.5255,820.1826,628.8687,820.1615,628.8899,814.5046,625.32,823.6838" style="stroke:#2C3E50;stroke-width:1;"/></g><!--link Backend to Maintenance--><g class="link" data-entity-1="ent0013" data-entity-2="ent0020" data-link-type="dependency" data-source-line="76" id="lnk45"><path d="M1044.98,723.8238 C998.92,734.6038 942.55,750.6738 895,772.7638 C865.64,786.4038 840.1207,804.6376 820.7007,819.9576" fill="none" id="Backend-to-Maintenance" style="stroke:#2C3E50;stroke-width:1;"/><polygon fill="#2C3E50" points="815.99,823.6738,825.5334,821.24,819.9156,820.577,820.5786,814.9591,815.99,823.6738" style="stroke:#2C3E50;stroke-width:1;"/></g><!--link Backend to Chat--><g class="link" data-entity-1="ent0013" data-entity-2="ent0021" data-link-type="dependency" data-source-line="77" id="lnk46"><path d="M1223.1,710.8238 C1372.03,718.9538 1664.79,738.7438 1762,772.7638 C1789.46,782.3738 1812.2307,796.6597 1832.5107,811.6997" fill="none" id="Backend-to-Chat" style="stroke:#2C3E50;stroke-width:1;"/><polygon fill="#2C3E50" points="1837.33,815.2738,1832.4837,806.6997,1833.3139,812.2953,1827.7183,813.1255,1837.33,815.2738" style="stroke:#2C3E50;stroke-width:1;"/></g><!--link Backend to AdminModule--><g class="link" data-entity-1="ent0013" data-entity-2="ent0022" data-link-type="dependency" data-source-line="78" id="lnk47"><path d="M1101.4,731.9538 C1085.99,744.1438 1067.41,759.0438 1051,772.7638 C1030.71,789.7438 1012.4802,805.7528 996.8202,819.7028" fill="none" id="Backend-to-AdminModule" style="stroke:#2C3E50;stroke-width:1;"/><polygon fill="#2C3E50" points="992.34,823.6938,1001.7209,820.6941,996.0735,820.3679,996.3996,814.7205,992.34,823.6938" style="stroke:#2C3E50;stroke-width:1;"/></g><!--link Backend to Chatbot--><g class="link" data-entity-1="ent0013" data-entity-2="ent0023" data-link-type="dependency" data-source-line="79" id="lnk48"><path d="M1134,732.1038 C1134,756.0538 1134,785.6038 1134,809.5238" fill="none" id="Backend-to-Chatbot" style="stroke:#2C3E50;stroke-width:1;"/><polygon fill="#2C3E50" points="1134,815.5238,1138,806.5238,1134,810.5238,1130,806.5238,1134,815.5238" style="stroke:#2C3E50;stroke-width:1;"/></g><!--link Mobile to Chat--><g class="link" data-entity-1="ent0006" data-entity-2="ent0021" data-link-type="dependency" data-source-line="82" id="lnk49"><path d="M1919.5,270.3638 C1936.73,279.0838 1956.82,288.1038 1976,293.9838 C1987.81,297.6038 2022.2,293.3138 2031,301.9838 C2074.73,345.0338 2053,376.9238 2053,438.2838 C2053,438.2838 2053,438.2838 2053,706.4638 C2053,710.9938 1963.8864,774.3702 1910.2564,812.1202" fill="none" id="Mobile-to-Chat" style="stroke:#2C3E50;stroke-width:1;"/><polygon fill="#2C3E50" points="1905.35,815.5738,1915.012,813.6643,1909.4387,812.6958,1910.4072,807.1224,1905.35,815.5738" style="stroke:#2C3E50;stroke-width:1;"/><text fill="#000000" font-family="sans-serif" font-size="13" lengthAdjust="spacing" textLength="132.8374" x="2054" y="557.4406">WebSocket (STOMP)</text></g><!--link Chat to RDS--><g class="link" data-entity-1="ent0021" data-entity-2="ent0027" data-link-type="dependency" data-source-line="83" id="lnk50"><path d="M1823.26,868.7738 C1804.8,877.8938 1782.95,887.1838 1762,892.3538 C1691.14,909.8838 1178.96,924.9338 1106,927.2138 C1081.96,927.9638 263.17,928.7338 240,935.2138 C207.35,944.3338 179.373,961.7082 157.203,978.0182" fill="none" id="Chat-to-RDS" style="stroke:#2C3E50;stroke-width:1;"/><polygon fill="#2C3E50" points="152.37,981.5738,161.9899,979.4624,156.3975,978.6108,157.2492,973.0184,152.37,981.5738" style="stroke:#2C3E50;stroke-width:1;"/><text fill="#000000" font-family="sans-serif" font-size="13" lengthAdjust="spacing" textLength="126.5278" x="1539" y="923.2806">Messages &amp; Rooms</text></g><!--link Chat to RabbitMQ--><g class="link" data-entity-1="ent0021" data-entity-2="ent0025" data-link-type="dependency" data-source-line="84" id="lnk51"><path d="M1814.2,868.7938 C1797.5,876.5038 1779.05,884.8938 1762,892.3538 C1743.04,900.6538 1730.49,893.0038 1719,910.2138 C1705.77,930.0238 1707.3062,952.0151 1712.2162,972.1151" fill="none" id="Chat-to-RabbitMQ" style="stroke:#2C3E50;stroke-width:1;"/><polygon fill="#2C3E50" points="1713.64,977.9438,1715.39,968.2516,1712.4535,973.0866,1707.6185,970.15,1713.64,977.9438" style="stroke:#2C3E50;stroke-width:1;"/><text fill="#000000" font-family="sans-serif" font-size="13" lengthAdjust="spacing" textLength="147.5195" x="1720" y="923.2806">Events (future scaling)</text></g><!--link Backend to RDS--><g class="link" data-entity-1="ent0013" data-entity-2="ent0027" data-link-type="dependency" data-source-line="87" id="lnk52"><path d="M1044.86,709.0038 C802.83,716.3238 149.42,739.1138 118,772.7638 C64.12,830.4738 95.0892,930.4299 113.2492,976.0099" fill="none" id="Backend-to-RDS" style="stroke:#2C3E50;stroke-width:1;"/><polygon fill="#2C3E50" points="115.47,981.5838,115.8548,971.7424,113.6194,976.9388,108.4229,974.7034,115.47,981.5838" style="stroke:#2C3E50;stroke-width:1;"/><text fill="#000000" font-family="sans-serif" font-size="13" lengthAdjust="spacing" textLength="97.4937" x="119" y="846.6306">JPA / Hibernate</text></g><!--link Backend to S3--><g class="link" data-entity-1="ent0013" data-entity-2="ent0029" data-link-type="dependency" data-source-line="88" id="lnk53"><path d="M1223.07,708.0038 C1427.4,712.2938 1916.75,727.2538 1975,772.7638 C2031.44,816.8638 2030.16,856.1738 2021,927.2138 C2018.78,944.4538 2015.5698,957.6285 2011.1498,972.3085" fill="none" id="Backend-to-S3" style="stroke:#2C3E50;stroke-width:1;"/><polygon fill="#2C3E50" points="2009.42,978.0538,2015.8449,970.5891,2010.8615,973.2661,2008.1846,968.2827,2009.42,978.0538" style="stroke:#2C3E50;stroke-width:1;"/><text fill="#000000" font-family="sans-serif" font-size="13" lengthAdjust="spacing" textLength="122.8145" x="2026" y="846.6306">Upload / Download</text></g><!--link Payment to S3--><g class="link" data-entity-1="ent0019" data-entity-2="ent0029" data-link-type="dependency" data-source-line="89" id="lnk54"><path d="M633.3,860.6338 C649.86,871.6538 672.74,885.1138 695,892.3538 C831.05,936.6138 872.19,918.7538 1015,927.2138 C1060.31,929.8938 1787.49,926.3338 1832,935.2138 C1873.9,943.5638 1913.1824,959.525 1946.0824,975.185" fill="none" id="Payment-to-S3" style="stroke:#2C3E50;stroke-width:1;"/><polygon fill="#2C3E50" points="1951.5,977.7638,1945.0928,970.284,1946.9853,975.6148,1941.6545,977.5074,1951.5,977.7638" style="stroke:#2C3E50;stroke-width:1;"/><text fill="#000000" font-family="sans-serif" font-size="13" lengthAdjust="spacing" textLength="85.3696" x="1016" y="923.2806">PDF Receipts</text></g><!--link Maintenance to S3--><g class="link" data-entity-1="ent0020" data-entity-2="ent0029" data-link-type="dependency" data-source-line="90" id="lnk55"><path d="M822.19,860.5638 C841.62,872.0238 868.85,886.0138 895,892.3538 C1000.51,917.9738 1769.01,875.8338 1872,910.2138 C1893.24,917.3038 1934.5911,948.993 1965.5211,974.093" fill="none" id="Maintenance-to-S3" style="stroke:#2C3E50;stroke-width:1;"/><polygon fill="#2C3E50" points="1970.18,977.8738,1965.7121,969.0966,1966.2975,974.7231,1960.6711,975.3085,1970.18,977.8738" style="stroke:#2C3E50;stroke-width:1;"/><text fill="#000000" font-family="sans-serif" font-size="13" lengthAdjust="spacing" textLength="110.7729" x="1902" y="923.2806">Evidence Images</text></g><!--link Report to S3--><g class="link" data-entity-1="ent0056" data-entity-2="ent0029" data-link-type="dependency" data-source-line="91" id="lnk57"><path d="M2188.1,867.7138 C2179.79,875.8638 2170.23,884.7738 2161,892.3538 C2122.32,924.1338 2079.9235,953.0582 2046.7835,974.5582" fill="none" id="Report-to-S3" style="stroke:#2C3E50;stroke-width:1;"/><polygon fill="#2C3E50" points="2041.75,977.8238,2051.4773,976.2811,2045.9446,975.1025,2047.1232,969.5698,2041.75,977.8238" style="stroke:#2C3E50;stroke-width:1;"/><text fill="#000000" font-family="sans-serif" font-size="13" lengthAdjust="spacing" textLength="83.2114" x="2136" y="923.2806">Attachments</text></g><!--link Backend to Email--><g class="link" data-entity-1="ent0013" data-entity-2="ent0031" data-link-type="dependency" data-source-line="94" id="lnk58"><path d="M1044.82,706.4138 C830.37,707.2038 299.57,715.0438 246,772.7638 C191.74,831.2338 252.6264,926.1499 288.9064,972.9999" fill="none" id="Backend-to-Email" style="stroke:#2C3E50;stroke-width:1;"/><polygon fill="#2C3E50" points="292.58,977.7438,290.2322,968.1788,289.5187,973.7905,283.907,973.077,292.58,977.7438" style="stroke:#2C3E50;stroke-width:1;"/><text fill="#000000" font-family="sans-serif" font-size="13" lengthAdjust="spacing" textLength="81.3643" x="247" y="846.6306">Notifications</text></g><!--link Payment to PayGateway--><g class="link" data-entity-1="ent0019" data-entity-2="ent0032" data-link-type="dependency" data-source-line="95" id="lnk59"><path d="M595.06,860.5338 C572.44,888.8838 531.4016,940.3233 505.1816,973.1933" fill="none" id="Payment-to-PayGateway" style="stroke:#2C3E50;stroke-width:1;"/><polygon fill="#2C3E50" points="501.44,977.8838,510.1793,973.3424,504.558,973.975,503.9253,968.3536,501.44,977.8838" style="stroke:#2C3E50;stroke-width:1;"/><text fill="#000000" font-family="sans-serif" font-size="13" lengthAdjust="spacing" textLength="83.0527" x="553" y="923.2806">Transactions</text></g><!--SRC=[ZLRTRjis5BxNKnnamEQW3Jeqo4s05f0jPKbdAwwf8Ble3IqnDb6954WghZlqTW-mHzoJz52KRKfXjnamG1r-v_-SJpBSL0n8JPM1gQIgv6832oheXjLC621xRLWD4p9TaFDFugQjAeWV2SIgs7B32jCg1Zjkjh1YjBh8USrWjgKcYlHdBXggQ0s5h1ifq1enUtIcK8kAJSKyYDxIKkwixoTQQVycLahkPhAI2dvwMroogr-zooajFc-KR4NP8vwwNnJHmk0ZCMs9Rlkd-vrWgZ_7PSr551r3WRDPnMs-SxfdwWp-ZE0KDfmjv9eZA6wQJsA2YHO6CchuCuCta7vfvFaPK0qEDTHyP6jVpG5H67qRUBSbdLMoBQrhjE1TPSpifCAKDowiWVcLR0s3gqkqdsJ4MUzaLvTZA4PHyGAZbWBcafPOl8gAWYdKZUTJfui7rFis2c66LgmVhpW3q-diBTm9RQmvj4OQPJivbT9WJOIiS3oSUTil9ig0Yq5qrWrCFDKN7kCM9suXoxQo3Zyyvl0A22jQnSs-pmGHOwtJW7UQBgHU5YYNvC9qI-31FV6BNh0DrqQv73mLNpxMMTBzs4Cl6YCN5DqoOKlieptnMCEkuQb6E7D4OlMDhLH-lrYwCdMxEaxTBiSWQIjmpo4dQ-dvkTsl5IyXctiE411e-O9fJJUs7Jz3-epMT6Z0wNhDpU8ZMhvlR0Kfye_UYw9NwKU-HmMy9DJGuU2MA5bJZNTBgSr6CV9n3fDLSbYVX0JC46GDvCJGADRqApQSs1sygn6ZNsFB2yORWwVqcIC55SpP9fS1q-aNmvJDYp3rp0iMAaDQKtu4d5OCkryvontWHzFr6pLiH_UeTzDQmZu_35f_qGM5OVq2xyO_U23fYhoKHpstmiN5-mFnTGJh2zmWMO5blA3vsVmkpNBuvw-_yNZ_a0GyzUHhpVJK1jTmc-TB4bbs3ScZWy1UMax3VtVk2GY1gvHOqZYkHJYyQJpxFSqIkCloT9N5yq1u1vETAqiwlk38BWEKno6-V40K_iM14doPl_Y-l5leWJTlUST0kvZXjjp6-R-tecENwrFzy1EXOvMek-ZIIGW2t9OpZKk-ahBMtds_j0XokmoJfsuyGHUqmgATXsDBuZp-Zpuurn-MCRwVR_dQhfSPPa_ii3mqbNqHle54xeGzHeUDEKAMoSrncoEVWu-8muQ3M_venHgfF0knCRJOMgiwd4_wn_-QBKS1rv19mv_wLwKU17nQQ8JbYWgDNnmMzHq0]--></g></svg>